<?xml version="1.0" encoding="utf-8"?>
<!-- Generator: Adobe Illustrator 18.1.1, SVG Export Plug-In . SVG Version: 6.00 Build 0)  -->
<svg version="1.1" id="Layer_1" xmlns="http://www.w3.org/2000/svg" xmlns:xlink="http://www.w3.org/1999/xlink" x="0px" y="0px"
	 viewBox="21.2 460.7 995.6 146.8" enable-background="new 21.2 460.7 995.6 146.8" xml:space="preserve">
<path fill="#E0AF1D" d="M189.8,460.7c0,0,0.4,3.1,0.9,4c0.4,0.9,2.2,2.2,2.2,2.2s-2.4,2.9-2.6,3.7c-0.2,0.9,0.9,2.9,1.5,3.7
	c0.7,0.9,8.3,6.4,9.2,7.2c2.2,2.4,5.7,6.6,5.7,9.9c0.2,5.7,1.1,12.3-1.5,17.6c-2.2,4.2-5.7,8.6-9.9,11.4c-1.1,0.9-7,4.2-7.9,4.6
	c-0.9,0.4-7.2,3.1-7.9,3.1c-0.7,0,1.5,1.1,2.2,1.1c0.9,0,15.1,0,15.1,0s3.5-0.9,4.6-1.1c1.1-0.4,5.7-1.8,5.7-1.8l1.8-0.2
	c0,0-3.1,2.2-4.2,2.9c-1.1,0.7-5.7,2.6-8.1,3.1s-12.1,1.5-14.9,1.5c-2.9,0-8.6-0.7-10.3-1.3c-1.8-0.7-5.3-1.1-5.3-1.1l-13.8,0.9
	l-4.6,7.9l-0.9,16.7c0,0,0.9,2,1.5,3.1c0.4,1.1,3.3,8.1,3.3,8.1s1.5,2.6,2.4,3.7c0.9,1.1,6.1,13.4,6.1,13.4l0.2,6.4
	c0,0,1.5,5,2.2,5.9s4,2.9,4,4c0.2,1.1-0.7,2.6-1.5,3.3c-0.9,0.9-4.6,2.2-4.6,2.2h-12.1l-0.2-9.9c0,0-1.8-7.2-2.4-8.6
	c-0.7-1.3-6.4-11-8.3-12.1c-1.8-1.1-4.4-2.9-5.9-4s-5.3-5.9-5.7-7.7s-8.1,25.5-8.1,25.5l-0.2,7.7c0,0,0.9,1.5,1.3,2.9
	c0.4,1.1,0.7,2,1.3,3.1c0.7,1.1-0.9,3.3-0.9,3.3l-17.3-0.2c0,0,0.4-5.9,1.1-7s0.4-5.5,0.4-5.5s0.9-1.8,0.9-2.6s0.4-30.3,0.4-30.3
	s-11,3.3-13.8,4c-2.9,0.7-16.2,2-17.6,2.2c-1.3,0.2-1.5,11.9-1.5,11.9s1.1,2.2,1.3,3.1c0.7,2.6,0.2,5.3,0.2,7.9
	c-0.2,2.9,0.7,5,1.5,7.7c0.4,1.3,6.1,5.7,6.6,6.6c0.4,0.9-0.4,2.4-1.3,2.9c-0.9,0.4-19.1-0.2-19.1-0.2s-2-5.7-2.2-7.7
	c-0.2-2,0.2-6.6,0.2-6.6s0.2-3.7-0.2-4.8c-0.4-1.1-5-15.4-7-16.5c-2-1.1-2,1.1-2,1.1s-1.1,7-1.8,8.6c-0.7,1.5-6.6,15.8-6.6,15.8
	s-2.6,9-2.6,9.7c0.2,0.9-9.4,0.4-9.4,0.4s-2.4-0.9-3.7-2.4c-1.3-1.5-2.9-5.3-2.4-6.6c0.4-1.3,3.7-3.3,3.7-3.3l0.7-2.2l5-9.2l-0.4-38
	c0,0,0.2-1.1-1.3-0.9c-1.3,0.7-9.7,15.8-9.7,15.8l0.2-7.2c0,0,4.4-11.2,4.6-12.3c0.2-1.1,1.5-4.8,2-5.7c1.1-2.2,4.2-8.6,6.4-12.1
	c2.2-3.3,12.7-13.4,13.8-14.3c1.3-1.1,7.2-5.5,11.4-7.9c4-2.4,11-2.4,11-2.4h14.3c0,0,7.7,1.1,12.3,2.2c4.6,1.1,13.2,0.2,16-0.4
	c2.9-0.7,7.7-3.1,9.9-4.6c2.2-1.5,7.2-5.7,7.2-5.7s5.7-3.1,8.6-3.1c3.1-0.2,10.1,2.2,10.1,2.2s4,2.2,5,2.9c1.1,0.4,4.4,3.1,5.3,3.3
	c1.1,0.4,5,0.7,6.4,1.3c1.1,0.7,7,6.6,7,6.6s10.1,2.6,13.6,2.6c3.5,0,7.2-2.2,9.2-5.3c1.8-2.9,2.6-9,0.7-11.6
	c-2.2-3.3-6.1-5.7-8.8-8.8c-0.9-1.3-2.9-4-3.7-6.1c-0.4-1.1-0.2-3.3-0.2-4.6c0-1.8,0.9-4.4,2.2-5.7S189.8,460.7,189.8,460.7z"/>
<g enable-background="new    ">
	<path fill="#E0AF1D" d="M241.2,534.2h-13.3v-6.8h34.4v6.8h-13.3v36.8h-7.7V534.2z"/>
	<path fill="#E0AF1D" d="M267.3,527.4h15.1c2,0,4,0.2,6,0.6c1.9,0.4,3.6,1.1,5.1,2.1c1.5,1,2.7,2.3,3.6,3.9c0.9,1.6,1.4,3.5,1.4,5.8
		c0,3.2-0.9,5.7-2.7,7.7c-1.8,2-4.2,3.3-7.3,4l11.6,19.3h-9.3l-10.1-18.4H275v18.4h-7.7V527.4z M281.4,546.1c1.1,0,2.2-0.1,3.3-0.2
		c1.1-0.2,2.1-0.5,3-0.9c0.9-0.5,1.6-1.1,2.2-1.9c0.6-0.8,0.9-1.9,0.9-3.2c0-1.2-0.3-2.2-0.8-2.9c-0.5-0.8-1.2-1.4-2-1.8
		c-0.8-0.5-1.8-0.8-2.8-0.9c-1-0.2-2.1-0.2-3-0.2h-7v12.2H281.4z"/>
	<path fill="#E0AF1D" d="M306,527.4h7.7v43.5H306V527.4z"/>
	<path fill="#E0AF1D" d="M358,554.9c0,2.6-0.5,5-1.4,7.1c-0.9,2.1-2.1,3.9-3.7,5.4c-1.6,1.5-3.4,2.6-5.5,3.4
		c-2.1,0.8-4.4,1.2-6.9,1.2c-2.5,0-4.8-0.4-6.9-1.2c-2.1-0.8-4-1.9-5.6-3.4c-1.6-1.5-2.8-3.3-3.7-5.4c-0.9-2.1-1.3-4.5-1.3-7.1
		v-27.5h7.7v27.2c0,1.3,0.2,2.5,0.5,3.8c0.3,1.3,0.9,2.4,1.6,3.4c0.8,1,1.8,1.8,3,2.4c1.2,0.6,2.8,0.9,4.6,0.9s3.4-0.3,4.6-0.9
		c1.2-0.6,2.3-1.4,3-2.4c0.8-1,1.3-2.1,1.6-3.4c0.3-1.2,0.5-2.5,0.5-3.8v-27.2h7.7V554.9z"/>
	<path fill="#E0AF1D" d="M367.2,527.4h12.1l11.3,30.9h0.2l11.2-30.9h12.2v43.5h-7.7v-35h-0.1l-13.2,35h-5.4l-13-35h-0.1v35h-7.4
		V527.4z"/>
	<path fill="#E0AF1D" d="M423.8,527.4H438c2.5,0,4.8,0.2,6.8,0.7c2,0.5,3.7,1.2,5.2,2.2c1.4,1,2.5,2.3,3.3,3.9
		c0.8,1.6,1.2,3.5,1.2,5.8c0,2.4-0.5,4.4-1.4,6.1c-0.9,1.6-2.1,3-3.7,4c-1.5,1-3.3,1.7-5.4,2.2c-2,0.5-4.2,0.7-6.5,0.7h-6v18h-7.7
		V527.4z M436.9,546.4c1.3,0,2.5-0.1,3.6-0.3c1.1-0.2,2.2-0.5,3.1-1c0.9-0.5,1.6-1.1,2.2-1.9c0.5-0.8,0.8-1.9,0.8-3.2
		c0-1.3-0.3-2.3-0.8-3.1c-0.5-0.8-1.2-1.4-2.1-1.9c-0.9-0.5-1.9-0.7-3-0.9c-1.1-0.1-2.3-0.2-3.5-0.2h-5.7v12.5H436.9z"/>
	<path fill="#E0AF1D" d="M461.3,527.4h7.7V545h20.3v-17.6h7.7v43.5h-7.7v-19.3H469v19.3h-7.7V527.4z"/>
	<path fill="#E0AF1D" d="M553.5,537.6c-1.1-1.6-2.6-2.7-4.5-3.4c-1.8-0.7-3.6-1.1-5.4-1.1c-2.3,0-4.3,0.4-6.1,1.2
		c-1.8,0.8-3.4,1.9-4.8,3.4s-2.4,3.1-3.1,5c-0.7,1.9-1.1,4-1.1,6.3c0,2.4,0.3,4.5,1,6.5s1.7,3.7,3,5.1c1.3,1.4,2.8,2.5,4.6,3.3
		c1.8,0.8,3.8,1.2,6.1,1.2c2.3,0,4.4-0.5,6.2-1.4c1.8-0.9,3.3-2.1,4.4-3.7l6.2,4.4c-1.9,2.4-4.3,4.3-7.1,5.6c-2.8,1.3-6,2-9.8,2
		c-3.4,0-6.5-0.6-9.4-1.7c-2.8-1.1-5.3-2.7-7.3-4.7c-2-2-3.6-4.4-4.8-7.3c-1.1-2.8-1.7-5.9-1.7-9.3c0-3.5,0.6-6.6,1.8-9.4
		c1.2-2.8,2.9-5.2,5-7.2c2.1-2,4.6-3.5,7.5-4.5c2.9-1.1,6-1.6,9.3-1.6c1.4,0,2.8,0.1,4.4,0.4c1.5,0.3,3,0.7,4.4,1.2
		c1.4,0.6,2.7,1.2,3.9,2.1c1.2,0.8,2.3,1.8,3.1,3L553.5,537.6z"/>
	<path fill="#E0AF1D" d="M577.8,527.4h6.7l18.8,43.5h-8.9l-4.1-10h-18.9l-3.9,10h-8.7L577.8,527.4z M587.6,554.3l-6.7-17.7
		l-6.8,17.7H587.6z"/>
	<path fill="#E0AF1D" d="M607.5,527.4h14.2c2.5,0,4.8,0.2,6.8,0.7c2,0.5,3.7,1.2,5.2,2.2c1.4,1,2.5,2.3,3.3,3.9
		c0.8,1.6,1.2,3.5,1.2,5.8c0,2.4-0.5,4.4-1.4,6.1c-0.9,1.6-2.1,3-3.7,4c-1.5,1-3.3,1.7-5.4,2.2s-4.2,0.7-6.5,0.7h-6v18h-7.7V527.4z
		 M620.7,546.4c1.3,0,2.5-0.1,3.6-0.3s2.2-0.5,3.1-1c0.9-0.5,1.6-1.1,2.2-1.9c0.5-0.8,0.8-1.9,0.8-3.2c0-1.3-0.3-2.3-0.8-3.1
		c-0.5-0.8-1.2-1.4-2.1-1.9c-0.9-0.5-1.9-0.7-3-0.9c-1.1-0.1-2.3-0.2-3.5-0.2h-5.7v12.5H620.7z"/>
	<path fill="#E0AF1D" d="M645,527.4h7.7v43.5H645V527.4z"/>
	<path fill="#E0AF1D" d="M671.1,534.2h-13.3v-6.8h34.4v6.8h-13.3v36.8h-7.7V534.2z"/>
	<path fill="#E0AF1D" d="M707.2,527.4h6.7l18.8,43.5h-8.9l-4.1-10h-18.9l-3.9,10h-8.7L707.2,527.4z M717.1,554.3l-6.7-17.7
		l-6.8,17.7H717.1z"/>
	<path fill="#E0AF1D" d="M737,527.4h7.7V564h18.5v6.9H737V527.4z"/>
	<path fill="#E0AF1D" d="M782.3,527.4h7.7V564h18.5v6.9h-26.3V527.4z"/>
	<path fill="#E0AF1D" d="M813.7,527.4h7.7v43.5h-7.7V527.4z"/>
	<path fill="#E0AF1D" d="M831,527.4h12.1l11.3,30.9h0.2l11.2-30.9H878v43.5h-7.7v-35h-0.1l-13.2,35h-5.4l-13-35h-0.1v35H831V527.4z"
		/>
	<path fill="#E0AF1D" d="M887.6,527.4h7.7v43.5h-7.7V527.4z"/>
	<path fill="#E0AF1D" d="M913.7,534.2h-13.3v-6.8h34.4v6.8h-13.3v36.8h-7.7V534.2z"/>
	<path fill="#E0AF1D" d="M939.8,527.4h28.8v6.8h-21.1v11.1h20v6.5h-20V564h22.2v6.9h-29.9V527.4z"/>
	<path fill="#E0AF1D" d="M977.3,527.4h15.4c2.8,0,5.7,0.4,8.5,1.1c2.9,0.7,5.5,2,7.7,3.7c2.3,1.7,4.2,3.9,5.6,6.7
		c1.4,2.8,2.2,6.2,2.2,10.3c0,3.8-0.7,7.1-2.2,9.8c-1.4,2.7-3.3,5-5.6,6.8c-2.3,1.8-4.9,3.1-7.7,3.9c-2.9,0.8-5.7,1.3-8.5,1.3h-15.4
		V527.4z M991.5,564.2c2,0,4-0.2,6-0.7c2-0.5,3.8-1.3,5.4-2.4c1.6-1.1,2.9-2.7,4-4.6c1-1.9,1.5-4.4,1.5-7.3c0-3.1-0.5-5.7-1.5-7.6
		c-1-2-2.3-3.5-4-4.6c-1.6-1.1-3.4-1.9-5.4-2.3c-2-0.4-4-0.6-6-0.6h-6.5v30.1H991.5z"/>
</g>
</svg>
