<?xml version="1.0" encoding="utf-8"?>
<!-- Generator: Adobe Illustrator 18.1.1, SVG Export Plug-In . SVG Version: 6.00 Build 0)  -->
<svg version="1.1" id="Layer_1" xmlns="http://www.w3.org/2000/svg" xmlns:xlink="http://www.w3.org/1999/xlink" x="0px" y="0px"
	 viewBox="0 0 236.9 185.1" enable-background="new 0 0 236.9 185.1" xml:space="preserve">
<path fill="#E0AF1D" stroke="#E0AF1D" stroke-miterlimit="10" d="M213,0c0,0,0.5,3.8,1.2,5s2.8,2.8,2.8,2.8s-3.1,3.6-3.3,4.6
	s1.2,3.6,2,4.6c0.8,1,10.6,7.9,11.7,9.3c2.7,3.1,7.2,8.4,7.3,12.5c0.2,7.1,1.3,15.6-2.1,22c-2.8,5.3-7.3,10.9-12.4,14.3
	c-1.5,1-8.9,5.3-10.1,5.9s-9.1,3.8-9.9,3.8s1.8,1.3,2.6,1.5s18.8,0.2,18.8,0.2s4.5-1,5.8-1.5s7.1-2.1,7.1-2.1l2.3-0.2
	c0,0-4,2.8-5.3,3.6s-7.3,3.3-10.2,4s-15.2,1.8-18.8,1.8s-10.7-0.8-13.1-1.7s-6.8-1.5-6.8-1.5l-17.5,1.2l-5.8,9.9l-1.2,21
	c0,0,1.2,2.5,1.8,3.8s4.3,10.2,4.3,10.2s2,3.3,3,4.8c1,1.5,7.8,16.9,7.8,16.9l0.2,8.1c0,0,2,6.4,2.8,7.6s5,3.6,5.1,5s-0.8,3.3-2,4.3
	s-5.9,2.8-5.9,2.8h-15.2l-0.3-12.4c0,0-2.3-9.3-3.1-10.7s-8.1-13.9-10.4-15.4s-5.6-3.6-7.4-5s-6.8-7.4-7.3-9.7s-10.2,32.2-10.2,32.2
	l-0.2,9.7c0,0,1.2,2,1.7,3.5s0.8,2.5,1.7,3.8s-1,4.3-1,4.3l-22-0.3c0,0,0.5-7.4,1.3-8.9s0.5-6.9,0.5-6.9s1-2.3,1-3.3
	s1.2-38.5,1.2-38.5s-13.9,4.1-17.3,5s-20.5,2.5-22.1,2.6s-1.8,14.9-1.8,14.9s1.3,2.8,1.7,4c0.9,3.3,0.3,6.7,0.2,10
	c-0.2,3.7,0.8,6.2,1.8,9.7c0.5,1.7,7.8,7.1,8.3,8.3s-0.5,3-1.7,3.6s-24.1-0.3-24.1-0.3s-2.5-7.1-2.6-9.7s0.2-8.4,0.2-8.4
	s0.3-4.8-0.3-6.1s-6.3-19.3-8.8-20.7s-2.5,1.3-2.5,1.3s-1.5,8.8-2.3,10.7s-8.3,19.8-8.3,19.8s-3.5,11.9-3.3,12.9S10.4,185,10.4,185
	s-3.3-1.3-5-3.1s-3.5-6.6-3-8.3s4.6-4.3,4.6-4.3l0.8-2.8l6.3-11.6l-0.3-47.9c0,0,0.2-1.5-1.7-1S0,125.9,0,125.9l0.2-9.3
	c0,0,5.5-14.2,5.8-15.5s2-6.1,2.5-7.1c1.3-2.7,5.3-10.9,7.9-15.2s16.1-16.9,17.3-18c1.7-1.5,9.3-6.9,14.4-9.9
	c5.1-3,13.9-3.1,13.9-3.1h18c0,0,9.6,1.3,15.5,2.6s16.7,0.2,20.3-0.7s9.7-4,12.6-5.9c2.8-2,9.3-7.3,9.3-7.3s7.1-3.8,10.9-4
	s12.7,2.8,12.7,2.8s5.1,2.8,6.4,3.5c1.3,0.7,5.5,3.8,6.8,4.3s6.4,0.8,7.9,1.7s8.9,8.4,8.9,8.4s12.7,3.3,17.2,3.3
	c4.5,0,9.2-2.7,11.6-6.5c2.2-3.5,3.3-11.3,0.8-14.8c-2.9-4.1-7.7-7.2-11-11.1c-1.1-1.3-3.9-4.7-4.9-7.6c-0.6-1.5-0.3-4.3-0.3-5.9
	c0.1-2.3,1.1-5.5,2.8-7.2C209.2,1.8,213,0,213,0z"/>
</svg>
