<?xml version="1.0" encoding="utf-8"?>
<!-- Generator: Adobe Illustrator 18.1.1, SVG Export Plug-In . SVG Version: 6.00 Build 0)  -->
<svg version="1.1" id="Layer_1" xmlns="http://www.w3.org/2000/svg" xmlns:xlink="http://www.w3.org/1999/xlink" x="0px" y="0px"
	 viewBox="0 0 454.9 66.8" enable-background="new 0 0 454.9 66.8" xml:space="preserve">
<path fill="#E0AF1D" d="M76.8-0.2c0,0,0.2,1.4,0.4,1.8c0.2,0.4,1,1,1,1s-1.1,1.3-1.2,1.7c-0.1,0.4,0.4,1.3,0.7,1.7
	c0.3,0.4,3.8,2.9,4.2,3.3c1,1.1,2.6,3,2.6,4.5c0.1,2.6,0.5,5.6-0.7,8c-1,1.9-2.6,3.9-4.5,5.2c-0.5,0.4-3.2,1.9-3.6,2.1
	s-3.3,1.4-3.6,1.4s0.7,0.5,1,0.5C73.5,31,80,31,80,31s1.6-0.4,2.1-0.5c0.5-0.2,2.6-0.8,2.6-0.8l0.8-0.1c0,0-1.4,1-1.9,1.3
	s-2.6,1.2-3.7,1.4c-1.1,0.2-5.5,0.7-6.8,0.7c-1.3,0-3.9-0.3-4.7-0.6s-2.4-0.5-2.4-0.5l-6.3,0.4l-2.1,3.6l-0.4,7.6
	c0,0,0.4,0.9,0.7,1.4c0.2,0.5,1.5,3.7,1.5,3.7s0.7,1.2,1.1,1.7s2.8,6.1,2.8,6.1l0.1,2.9c0,0,0.7,2.3,1,2.7c0.3,0.4,1.8,1.3,1.8,1.8
	c0.1,0.5-0.3,1.2-0.7,1.5c-0.4,0.4-2.1,1-2.1,1h-5.5l-0.1-4.5c0,0-0.8-3.3-1.1-3.9s-2.9-5-3.8-5.5c-0.8-0.5-2-1.3-2.7-1.8
	c-0.7-0.5-2.4-2.7-2.6-3.5c-0.2-0.8-3.7,11.6-3.7,11.6l-0.1,3.5c0,0,0.4,0.7,0.6,1.3c0.2,0.5,0.3,0.9,0.6,1.4
	c0.3,0.5-0.4,1.5-0.4,1.5l-7.9-0.1c0,0,0.2-2.7,0.5-3.2s0.2-2.5,0.2-2.5s0.4-0.8,0.4-1.2S38,45.6,38,45.6s-5,1.5-6.3,1.8
	s-7.4,0.9-8,1c-0.6,0.1-0.7,5.4-0.7,5.4s0.5,1,0.6,1.4c0.3,1.2,0.1,2.4,0.1,3.6c-0.1,1.3,0.3,2.3,0.7,3.5c0.2,0.6,2.8,2.6,3,3
	c0.2,0.4-0.2,1.1-0.6,1.3c-0.4,0.2-8.7-0.1-8.7-0.1s-0.9-2.6-1-3.5s0.1-3,0.1-3s0.1-1.7-0.1-2.2c-0.2-0.5-2.3-7-3.2-7.5
	c-0.9-0.5-0.9,0.5-0.9,0.5s-0.5,3.2-0.8,3.9c-0.3,0.7-3,7.2-3,7.2S8,66,8,66.3c0.1,0.4-4.3,0.2-4.3,0.2S2.6,66.1,2,65.4
	c-0.6-0.7-1.3-2.4-1.1-3s1.7-1.5,1.7-1.5l0.3-1l2.3-4.2L5,38.4c0,0,0.1-0.5-0.6-0.4C3.8,38.3,0,45.2,0,45.2l0.1-3.3
	c0,0,2-5.1,2.1-5.6c0.1-0.5,0.7-2.2,0.9-2.6c0.5-1,1.9-3.9,2.9-5.5c1-1.5,5.8-6.1,6.3-6.5c0.6-0.5,3.3-2.5,5.2-3.6
	c1.8-1.1,5-1.1,5-1.1h6.5c0,0,3.5,0.5,5.6,1c2.1,0.5,6,0.1,7.3-0.2c1.3-0.3,3.5-1.4,4.5-2.1s3.3-2.6,3.3-2.6s2.6-1.4,3.9-1.4
	c1.4-0.1,4.6,1,4.6,1s1.8,1,2.3,1.3c0.5,0.2,2,1.4,2.4,1.5c0.5,0.2,2.3,0.3,2.9,0.6c0.5,0.3,3.2,3,3.2,3s4.6,1.2,6.2,1.2
	c1.6,0,3.3-1,4.2-2.4c0.8-1.3,1.2-4.1,0.3-5.3c-1-1.5-2.8-2.6-4-4C75.3,8,74.4,6.8,74,5.8c-0.2-0.5-0.1-1.5-0.1-2.1
	c0-0.8,0.4-2,1-2.6C75.5,0.5,76.8-0.2,76.8-0.2z"/>
<text transform="matrix(1 0 0 1 94 50)" fill="#E0AF1D" font-family="'AvenirNext-DemiBold'" font-size="28">TRIUMPH CAPITAL LIMITED</text>
</svg>
